<svg aria-roledescription="gitGraph" role="graphics-document document" viewBox="-183.43429565429688 -8 525.1335144042969 708.1881713867188" height="708.1881713867188" xmlns:xlink="http://www.w3.org/1999/xlink" xmlns="http://www.w3.org/2000/svg" width="525.1335144042969" id="my-svg"><style>#my-svg{font-family:"trebuchet ms",verdana,arial,sans-serif;font-size:16px;fill:#333;}#my-svg .error-icon{fill:#552222;}#my-svg .error-text{fill:#552222;stroke:#552222;}#my-svg .edge-thickness-normal{stroke-width:2px;}#my-svg .edge-thickness-thick{stroke-width:3.5px;}#my-svg .edge-pattern-solid{stroke-dasharray:0;}#my-svg .edge-pattern-dashed{stroke-dasharray:3;}#my-svg .edge-pattern-dotted{stroke-dasharray:2;}#my-svg .marker{fill:#333333;stroke:#333333;}#my-svg .marker.cross{stroke:#333333;}#my-svg svg{font-family:"trebuchet ms",verdana,arial,sans-serif;font-size:16px;}#my-svg .commit-id,#my-svg .commit-msg,#my-svg .branch-label{fill:lightgrey;color:lightgrey;font-family:'trebuchet ms',verdana,arial,sans-serif;font-family:var(--mermaid-font-family);}#my-svg .branch-label0{fill:#ffffff;}#my-svg .commit0{stroke:hsl(240, 100%, 46.2745098039%);fill:hsl(240, 100%, 46.2745098039%);}#my-svg .commit-highlight0{stroke:hsl(60, 100%, 3.7254901961%);fill:hsl(60, 100%, 3.7254901961%);}#my-svg .label0{fill:hsl(240, 100%, 46.2745098039%);}#my-svg .arrow0{stroke:hsl(240, 100%, 46.2745098039%);}#my-svg .branch-label1{fill:black;}#my-svg .commit1{stroke:hsl(60, 100%, 43.5294117647%);fill:hsl(60, 100%, 43.5294117647%);}#my-svg .commit-highlight1{stroke:rgb(0, 0, 160.5);fill:rgb(0, 0, 160.5);}#my-svg .label1{fill:hsl(60, 100%, 43.5294117647%);}#my-svg .arrow1{stroke:hsl(60, 100%, 43.5294117647%);}#my-svg .branch-label2{fill:black;}#my-svg .commit2{stroke:hsl(80, 100%, 46.2745098039%);fill:hsl(80, 100%, 46.2745098039%);}#my-svg .commit-highlight2{stroke:rgb(48.8333333334, 0, 146.5000000001);fill:rgb(48.8333333334, 0, 146.5000000001);}#my-svg .label2{fill:hsl(80, 100%, 46.2745098039%);}#my-svg .arrow2{stroke:hsl(80, 100%, 46.2745098039%);}#my-svg .branch-label3{fill:#ffffff;}#my-svg .commit3{stroke:hsl(210, 100%, 46.2745098039%);fill:hsl(210, 100%, 46.2745098039%);}#my-svg .commit-highlight3{stroke:rgb(146.5000000001, 73.2500000001, 0);fill:rgb(146.5000000001, 73.2500000001, 0);}#my-svg .label3{fill:hsl(210, 100%, 46.2745098039%);}#my-svg .arrow3{stroke:hsl(210, 100%, 46.2745098039%);}#my-svg .branch-label4{fill:black;}#my-svg .commit4{stroke:hsl(180, 100%, 46.2745098039%);fill:hsl(180, 100%, 46.2745098039%);}#my-svg .commit-highlight4{stroke:rgb(146.5000000001, 0, 0);fill:rgb(146.5000000001, 0, 0);}#my-svg .label4{fill:hsl(180, 100%, 46.2745098039%);}#my-svg .arrow4{stroke:hsl(180, 100%, 46.2745098039%);}#my-svg .branch-label5{fill:black;}#my-svg .commit5{stroke:hsl(150, 100%, 46.2745098039%);fill:hsl(150, 100%, 46.2745098039%);}#my-svg .commit-highlight5{stroke:rgb(146.5000000001, 0, 73.2500000001);fill:rgb(146.5000000001, 0, 73.2500000001);}#my-svg .label5{fill:hsl(150, 100%, 46.2745098039%);}#my-svg .arrow5{stroke:hsl(150, 100%, 46.2745098039%);}#my-svg .branch-label6{fill:black;}#my-svg .commit6{stroke:hsl(300, 100%, 46.2745098039%);fill:hsl(300, 100%, 46.2745098039%);}#my-svg .commit-highlight6{stroke:rgb(0, 146.5000000001, 0);fill:rgb(0, 146.5000000001, 0);}#my-svg .label6{fill:hsl(300, 100%, 46.2745098039%);}#my-svg .arrow6{stroke:hsl(300, 100%, 46.2745098039%);}#my-svg .branch-label7{fill:black;}#my-svg .commit7{stroke:hsl(0, 100%, 46.2745098039%);fill:hsl(0, 100%, 46.2745098039%);}#my-svg .commit-highlight7{stroke:rgb(0, 146.5000000001, 146.5000000001);fill:rgb(0, 146.5000000001, 146.5000000001);}#my-svg .label7{fill:hsl(0, 100%, 46.2745098039%);}#my-svg .arrow7{stroke:hsl(0, 100%, 46.2745098039%);}#my-svg .branch{stroke-width:1;stroke:#333333;stroke-dasharray:2;}#my-svg .commit-label{font-size:16px;fill:#000021;}#my-svg .commit-label-bkg{font-size:16px;fill:#ffffde;opacity:0.5;}#my-svg .tag-label{font-size:10px;fill:#131300;}#my-svg .tag-label-bkg{fill:#ECECFF;stroke:hsl(240, 60%, 86.2745098039%);}#my-svg .tag-hole{fill:#333;}#my-svg .commit-merge{stroke:#ECECFF;fill:#ECECFF;}#my-svg .commit-reverse{stroke:#ECECFF;fill:#ECECFF;stroke-width:3;}#my-svg .commit-highlight-inner{stroke:#ECECFF;fill:#ECECFF;}#my-svg .arrow{stroke-width:8;stroke-linecap:round;fill:none;}#my-svg .gitTitleText{text-anchor:middle;font-size:18px;fill:#333;}#my-svg :root{--mermaid-font-family:"trebuchet ms",verdana,arial,sans-serif;}</style><g/><g class="commit-bullets"/><g class="commit-labels"/><g><line class="branch branch0" y2="680" x2="0" y1="30" x1="0"/><rect height="23" width="53.25" y="0" x="-27.625" ry="4" rx="4" class="branchLabelBkg label0"/><g class="branchLabel"><g transform="translate(-22.625, 0)" class="label branch-label0"><text><tspan class="row" x="0" dy="1em" xml:space="preserve">main</tspan></text></g></g><line class="branch branch1" y2="680" x2="107.625" y1="30" x1="107.625"/><rect height="23" width="144.4609375" y="0" x="34.39453125" ry="4" rx="4" class="branchLabelBkg label1"/><g class="branchLabel"><g transform="translate(39.39453125, 0)" class="label branch-label1"><text><tspan class="row" x="0" dy="1em" xml:space="preserve">train_ml-element</tspan></text></g></g><line class="branch branch2" y2="680" x2="260.85546875" y1="30" x1="260.85546875"/><rect height="23" width="147.6875" y="0" x="186.01171875" ry="4" rx="4" class="branchLabelBkg label2"/><g class="branchLabel"><g transform="translate(191.01171875, 0)" class="label branch-label2"><text><tspan class="row" x="0" dy="1em" xml:space="preserve">train_tsa-element</tspan></text></g></g></g><g class="commit-arrows"><path class="arrow arrow0" d="M 0 40 L 0 40  0 90 L 0 90"/><path class="arrow arrow0" d="M 0 90 L 0 90  0 140 L 0 140"/><path class="arrow arrow1" d="M 0 140 L 87.625 140 A 20 20, 0, 0, 1, 107.625 160 L 107.625 190"/><path class="arrow arrow1" d="M 107.625 190 L 107.625 190  107.625 240 L 107.625 240"/><path class="arrow arrow1" d="M 107.625 240 L 107.625 240  107.625 290 L 107.625 290"/><path class="arrow arrow1" d="M 107.625 290 L 107.625 290  107.625 340 L 107.625 340"/><path class="arrow arrow1" d="M 107.625 340 L 107.625 340  107.625 390 L 107.625 390"/><path class="arrow arrow0" d="M 0 140 L 0 140  0 440 L 0 440"/><path class="arrow arrow1" d="M 107.625 390 L 107.625 420 A 20 20, 0, 0, 1, 87.625 440 L 0 440"/><path class="arrow arrow0" d="M 0 440 L 0 440  0 490 L 0 490"/><path class="arrow arrow2" d="M 0 490 L 240.85546875 490 A 20 20, 0, 0, 1, 260.85546875 510 L 260.85546875 540"/><path class="arrow arrow0" d="M 0 490 L 0 490  0 590 L 0 590"/><path class="arrow arrow2" d="M 260.85546875 540 L 260.85546875 570 A 20 20, 0, 0, 1, 240.85546875 590 L 0 590"/><path class="arrow arrow0" d="M 0 590 L 0 590  0 640 L 0 640"/></g><g class="commit-bullets"><circle class="commit create Project commit0" r="10" cy="40" cx="0"/><circle class="commit create Track commit0" r="10" cy="90" cx="0"/><circle class="commit create DataSet commit0" r="10" cy="140" cx="0"/><circle class="commit upload data and configure commit1" r="10" cy="190" cx="107.625"/><circle class="commit train element in background commit1" r="10" cy="240" cx="107.625"/><circle class="commit train commit1" r="10" cy="290" cx="107.625"/><circle class="commit train.. commit1" r="10" cy="340" cx="107.625"/><circle class="commit train... commit1" r="10" cy="390" cx="107.625"/><circle class="commit 8-fbc3412 commit0" r="9" cy="440" cx="0"/><circle class="commit commit-merge 8-fbc3412 commit0" r="6" cy="440" cx="0"/><circle class="commit add ML Configuration to Track commit0" r="10" cy="490" cx="0"/><circle class="commit select data and configure commit2" r="10" cy="540" cx="260.85546875"/><circle class="commit 11-c1b6993 commit0" r="9" cy="590" cx="0"/><circle class="commit commit-merge 11-c1b6993 commit0" r="6" cy="590" cx="0"/><circle class="commit send commit0" r="10" cy="640" cx="0"/></g><g class="commit-labels"><g><rect transform="rotate(-45, 0, 40)" height="23" width="107.65625" y="28" x="-124.65625" class="commit-label-bkg"/><text transform="rotate(-45, 0, 40)" class="commit-label" y="47" x="-119.65625">create Project</text></g><g><rect transform="rotate(-45, 0, 90)" height="23" width="93.953125" y="78" x="-110.953125" class="commit-label-bkg"/><text transform="rotate(-45, 0, 90)" class="commit-label" y="97" x="-105.953125">create Track</text></g><g><rect transform="rotate(-45, 0, 140)" height="23" width="111.5546875" y="128" x="-128.5546875" class="commit-label-bkg"/><text transform="rotate(-45, 0, 140)" class="commit-label" y="147" x="-123.5546875">create DataSet</text></g><g><rect transform="rotate(-45, 107.625, 190)" height="23" width="192.59375" y="178" x="-101.96875" class="commit-label-bkg"/><text transform="rotate(-45, 107.625, 190)" class="commit-label" y="197" x="-96.96875">upload data and configure</text></g><g><rect transform="rotate(-45, 107.625, 240)" height="23" width="207.9375" y="228" x="-117.3125" class="commit-label-bkg"/><text transform="rotate(-45, 107.625, 240)" class="commit-label" y="247" x="-112.3125">train element in background</text></g><g><rect transform="rotate(-45, 107.625, 290)" height="23" width="38.53125" y="278" x="52.09375" class="commit-label-bkg"/><text transform="rotate(-45, 107.625, 290)" class="commit-label" y="297" x="57.09375">train</text></g><g><rect transform="rotate(-45, 107.625, 340)" height="23" width="50.03125" y="328" x="40.59375" class="commit-label-bkg"/><text transform="rotate(-45, 107.625, 340)" class="commit-label" y="347" x="45.59375">train..</text></g><g><rect transform="rotate(-45, 107.625, 390)" height="23" width="55.90625" y="378" x="34.71875" class="commit-label-bkg"/><text transform="rotate(-45, 107.625, 390)" class="commit-label" y="397" x="39.71875">train...</text></g><g><rect transform="rotate(-45, 0, 490)" height="23" width="219.1015625" y="478" x="-236.1015625" class="commit-label-bkg"/><text transform="rotate(-45, 0, 490)" class="commit-label" y="497" x="-231.1015625">add ML Configuration to Track</text></g><g><rect transform="rotate(-45, 260.85546875, 540)" height="23" width="187.2265625" y="528" x="56.62890625" class="commit-label-bkg"/><text transform="rotate(-45, 260.85546875, 540)" class="commit-label" y="547" x="61.62890625">select data and configure</text></g><g><rect transform="rotate(-45, 0, 640)" height="23" width="36.9453125" y="628" x="-53.9453125" class="commit-label-bkg"/><text transform="rotate(-45, 0, 640)" class="commit-label" y="647" x="-48.9453125">send</text></g></g></svg>